<mxfile host="app.diagrams.net" agent="Mozilla/5.0 (Windows NT 10.0; Win64; x64) AppleWebKit/537.36 (KHTML, like Gecko) Chrome/130.0.0.0 Safari/537.36" version="25.0.3">
  <diagram name="Sayfa -1" id="MvbmhzWUamUo6SXamKTE">
    <mxGraphModel dx="1711" dy="1095" grid="1" gridSize="10" guides="1" tooltips="1" connect="1" arrows="1" fold="1" page="1" pageScale="1" pageWidth="827" pageHeight="1169" math="0" shadow="0">
      <root>
        <mxCell id="0" />
        <mxCell id="1" parent="0" />
        <mxCell id="6HPAj1P-MnoI5-2GbeFd-3" value="" style="edgeStyle=orthogonalEdgeStyle;rounded=0;orthogonalLoop=1;jettySize=auto;html=1;" parent="1" source="6HPAj1P-MnoI5-2GbeFd-1" target="6HPAj1P-MnoI5-2GbeFd-2" edge="1">
          <mxGeometry relative="1" as="geometry" />
        </mxCell>
        <mxCell id="TFdXxxwNR08csre6Bzj9-19" value="POWER IN" style="edgeLabel;html=1;align=center;verticalAlign=middle;resizable=0;points=[];" vertex="1" connectable="0" parent="6HPAj1P-MnoI5-2GbeFd-3">
          <mxGeometry x="-0.1821" y="1" relative="1" as="geometry">
            <mxPoint as="offset" />
          </mxGeometry>
        </mxCell>
        <mxCell id="6HPAj1P-MnoI5-2GbeFd-1" value="&lt;b&gt;Power Input&amp;nbsp;&lt;/b&gt;&lt;br&gt;5V 250mA&lt;br&gt;(Over Connector)" style="rounded=1;whiteSpace=wrap;html=1;fillColor=#f8cecc;strokeColor=#b85450;" parent="1" vertex="1">
          <mxGeometry x="90" y="300" width="120" height="60" as="geometry" />
        </mxCell>
        <mxCell id="6HPAj1P-MnoI5-2GbeFd-5" value="" style="edgeStyle=orthogonalEdgeStyle;rounded=0;orthogonalLoop=1;jettySize=auto;html=1;" parent="1" source="6HPAj1P-MnoI5-2GbeFd-2" target="6HPAj1P-MnoI5-2GbeFd-4" edge="1">
          <mxGeometry relative="1" as="geometry" />
        </mxCell>
        <mxCell id="6HPAj1P-MnoI5-2GbeFd-6" value="Power and NTC" style="edgeLabel;html=1;align=center;verticalAlign=middle;resizable=0;points=[];" parent="6HPAj1P-MnoI5-2GbeFd-5" vertex="1" connectable="0">
          <mxGeometry x="-0.0125" y="1" relative="1" as="geometry">
            <mxPoint as="offset" />
          </mxGeometry>
        </mxCell>
        <mxCell id="6HPAj1P-MnoI5-2GbeFd-8" value="" style="edgeStyle=orthogonalEdgeStyle;rounded=0;orthogonalLoop=1;jettySize=auto;html=1;exitX=1;exitY=0.5;exitDx=0;exitDy=0;" parent="1" source="6HPAj1P-MnoI5-2GbeFd-2" target="6HPAj1P-MnoI5-2GbeFd-7" edge="1">
          <mxGeometry relative="1" as="geometry" />
        </mxCell>
        <mxCell id="TFdXxxwNR08csre6Bzj9-16" value="VBAT" style="edgeLabel;html=1;align=center;verticalAlign=middle;resizable=0;points=[];" vertex="1" connectable="0" parent="6HPAj1P-MnoI5-2GbeFd-8">
          <mxGeometry x="0.0798" y="3" relative="1" as="geometry">
            <mxPoint as="offset" />
          </mxGeometry>
        </mxCell>
        <mxCell id="TFdXxxwNR08csre6Bzj9-11" style="edgeStyle=orthogonalEdgeStyle;rounded=0;orthogonalLoop=1;jettySize=auto;html=1;entryX=-0.002;entryY=0.739;entryDx=0;entryDy=0;entryPerimeter=0;" edge="1" parent="1" source="6HPAj1P-MnoI5-2GbeFd-2" target="6HPAj1P-MnoI5-2GbeFd-9">
          <mxGeometry relative="1" as="geometry">
            <mxPoint x="440" y="410" as="targetPoint" />
            <Array as="points">
              <mxPoint x="440" y="350" />
              <mxPoint x="440" y="390" />
            </Array>
          </mxGeometry>
        </mxCell>
        <mxCell id="TFdXxxwNR08csre6Bzj9-12" value="Charge Status" style="edgeLabel;html=1;align=center;verticalAlign=middle;resizable=0;points=[];" vertex="1" connectable="0" parent="TFdXxxwNR08csre6Bzj9-11">
          <mxGeometry x="-0.1912" y="-1" relative="1" as="geometry">
            <mxPoint x="56" as="offset" />
          </mxGeometry>
        </mxCell>
        <mxCell id="6HPAj1P-MnoI5-2GbeFd-2" value="&lt;b&gt;Battery Charger&lt;/b&gt;&lt;div&gt;&lt;br&gt;&lt;/div&gt;" style="whiteSpace=wrap;html=1;rounded=1;fillColor=#f8cecc;strokeColor=#b85450;" parent="1" vertex="1">
          <mxGeometry x="290" y="300" width="120" height="60" as="geometry" />
        </mxCell>
        <mxCell id="6HPAj1P-MnoI5-2GbeFd-4" value="&lt;b&gt;Battery &lt;/b&gt;(w/BMS)&lt;div&gt;(Over Connector)&lt;/div&gt;" style="whiteSpace=wrap;html=1;rounded=1;fillColor=#f8cecc;strokeColor=#b85450;" parent="1" vertex="1">
          <mxGeometry x="290" y="440" width="120" height="60" as="geometry" />
        </mxCell>
        <mxCell id="6HPAj1P-MnoI5-2GbeFd-10" value="" style="edgeStyle=orthogonalEdgeStyle;rounded=0;orthogonalLoop=1;jettySize=auto;html=1;" parent="1" source="6HPAj1P-MnoI5-2GbeFd-7" target="6HPAj1P-MnoI5-2GbeFd-9" edge="1">
          <mxGeometry relative="1" as="geometry" />
        </mxCell>
        <mxCell id="6HPAj1P-MnoI5-2GbeFd-7" value="&lt;b&gt;Voltage Reg.&lt;br&gt;4.2V to 3.3V&lt;/b&gt;" style="whiteSpace=wrap;html=1;rounded=1;fillColor=#f8cecc;strokeColor=#b85450;" parent="1" vertex="1">
          <mxGeometry x="490" y="300" width="120" height="60" as="geometry" />
        </mxCell>
        <mxCell id="6HPAj1P-MnoI5-2GbeFd-16" value="" style="edgeStyle=orthogonalEdgeStyle;rounded=0;orthogonalLoop=1;jettySize=auto;html=1;" parent="1" source="6HPAj1P-MnoI5-2GbeFd-9" target="6HPAj1P-MnoI5-2GbeFd-15" edge="1">
          <mxGeometry relative="1" as="geometry" />
        </mxCell>
        <mxCell id="TFdXxxwNR08csre6Bzj9-1" style="edgeStyle=orthogonalEdgeStyle;rounded=0;orthogonalLoop=1;jettySize=auto;html=1;entryX=0;entryY=0.5;entryDx=0;entryDy=0;exitX=0.991;exitY=0.619;exitDx=0;exitDy=0;exitPerimeter=0;" edge="1" parent="1" source="6HPAj1P-MnoI5-2GbeFd-9" target="Jjn9rgQKPbEfJKaSWLL2-1">
          <mxGeometry relative="1" as="geometry" />
        </mxCell>
        <mxCell id="TFdXxxwNR08csre6Bzj9-15" value="3x PWM GPIO" style="edgeLabel;html=1;align=center;verticalAlign=middle;resizable=0;points=[];" vertex="1" connectable="0" parent="TFdXxxwNR08csre6Bzj9-1">
          <mxGeometry x="-0.1857" y="1" relative="1" as="geometry">
            <mxPoint x="14" y="1" as="offset" />
          </mxGeometry>
        </mxCell>
        <mxCell id="TFdXxxwNR08csre6Bzj9-2" style="edgeStyle=orthogonalEdgeStyle;rounded=0;orthogonalLoop=1;jettySize=auto;html=1;entryX=0;entryY=0.5;entryDx=0;entryDy=0;" edge="1" parent="1">
          <mxGeometry relative="1" as="geometry">
            <mxPoint x="900" y="275" as="sourcePoint" />
            <mxPoint x="1040" y="250" as="targetPoint" />
            <Array as="points">
              <mxPoint x="900" y="250" />
            </Array>
          </mxGeometry>
        </mxCell>
        <mxCell id="TFdXxxwNR08csre6Bzj9-14" value="I2C" style="edgeLabel;html=1;align=center;verticalAlign=middle;resizable=0;points=[];" vertex="1" connectable="0" parent="TFdXxxwNR08csre6Bzj9-2">
          <mxGeometry x="-0.297" relative="1" as="geometry">
            <mxPoint x="27" as="offset" />
          </mxGeometry>
        </mxCell>
        <mxCell id="TFdXxxwNR08csre6Bzj9-6" value="" style="edgeStyle=orthogonalEdgeStyle;rounded=0;orthogonalLoop=1;jettySize=auto;html=1;" edge="1" parent="1">
          <mxGeometry relative="1" as="geometry">
            <mxPoint x="789.9" y="455" as="sourcePoint" />
            <mxPoint x="789.9" y="535" as="targetPoint" />
          </mxGeometry>
        </mxCell>
        <mxCell id="TFdXxxwNR08csre6Bzj9-7" value="I2C&amp;nbsp;" style="edgeLabel;html=1;align=center;verticalAlign=middle;resizable=0;points=[];" vertex="1" connectable="0" parent="TFdXxxwNR08csre6Bzj9-6">
          <mxGeometry x="-0.075" y="2" relative="1" as="geometry">
            <mxPoint as="offset" />
          </mxGeometry>
        </mxCell>
        <mxCell id="6HPAj1P-MnoI5-2GbeFd-9" value="&lt;b&gt;ESP32-C6&lt;/b&gt;" style="whiteSpace=wrap;html=1;rounded=1;fillColor=#fff2cc;strokeColor=#d6b656;" parent="1" vertex="1">
          <mxGeometry x="680" y="205" width="220" height="250" as="geometry" />
        </mxCell>
        <mxCell id="6HPAj1P-MnoI5-2GbeFd-15" value="&lt;b&gt;WIFI/BL Antenna&lt;/b&gt;" style="whiteSpace=wrap;html=1;rounded=1;fillColor=#e1d5e7;strokeColor=#9673a6;" parent="1" vertex="1">
          <mxGeometry x="730" y="80" width="120" height="60" as="geometry" />
        </mxCell>
        <mxCell id="6HPAj1P-MnoI5-2GbeFd-11" value="" style="endArrow=none;html=1;rounded=0;" parent="1" edge="1">
          <mxGeometry width="50" height="50" relative="1" as="geometry">
            <mxPoint x="790" y="100" as="sourcePoint" />
            <mxPoint x="800" y="90" as="targetPoint" />
          </mxGeometry>
        </mxCell>
        <mxCell id="6HPAj1P-MnoI5-2GbeFd-12" value="" style="endArrow=none;html=1;rounded=0;" parent="1" edge="1">
          <mxGeometry width="50" height="50" relative="1" as="geometry">
            <mxPoint x="780" y="90" as="sourcePoint" />
            <mxPoint x="790" y="100" as="targetPoint" />
          </mxGeometry>
        </mxCell>
        <mxCell id="6HPAj1P-MnoI5-2GbeFd-13" value="" style="endArrow=none;html=1;rounded=0;" parent="1" edge="1">
          <mxGeometry width="50" height="50" relative="1" as="geometry">
            <mxPoint x="780" y="90" as="sourcePoint" />
            <mxPoint x="800" y="90" as="targetPoint" />
          </mxGeometry>
        </mxCell>
        <mxCell id="6HPAj1P-MnoI5-2GbeFd-14" value="" style="endArrow=none;html=1;rounded=0;fillColor=#e1d5e7;strokeColor=#9673a6;" parent="1" edge="1">
          <mxGeometry width="50" height="50" relative="1" as="geometry">
            <mxPoint x="790" y="120" as="sourcePoint" />
            <mxPoint x="790" y="100" as="targetPoint" />
          </mxGeometry>
        </mxCell>
        <mxCell id="6HPAj1P-MnoI5-2GbeFd-17" value="&lt;b&gt;ICM-42605&lt;br&gt;IMU Gyro/Accel&lt;/b&gt;" style="rounded=1;whiteSpace=wrap;html=1;fillColor=#d5e8d4;strokeColor=#82b366;" parent="1" vertex="1">
          <mxGeometry x="1040" y="230" width="120" height="60" as="geometry" />
        </mxCell>
        <mxCell id="Jjn9rgQKPbEfJKaSWLL2-1" value="&lt;b&gt;RGB LED&lt;/b&gt;" style="rounded=1;whiteSpace=wrap;html=1;fillColor=#d5e8d4;strokeColor=#82b366;" parent="1" vertex="1">
          <mxGeometry x="1040" y="330" width="120" height="60" as="geometry" />
        </mxCell>
        <mxCell id="TFdXxxwNR08csre6Bzj9-22" value="" style="edgeStyle=orthogonalEdgeStyle;rounded=0;orthogonalLoop=1;jettySize=auto;html=1;" edge="1" parent="1" source="TFdXxxwNR08csre6Bzj9-5" target="TFdXxxwNR08csre6Bzj9-21">
          <mxGeometry relative="1" as="geometry" />
        </mxCell>
        <mxCell id="TFdXxxwNR08csre6Bzj9-5" value="&lt;b&gt;Motor Driver&lt;/b&gt;" style="whiteSpace=wrap;html=1;rounded=1;fillColor=#d80073;fontColor=#ffffff;strokeColor=#A50040;" vertex="1" parent="1">
          <mxGeometry x="680" y="535" width="220" height="250" as="geometry" />
        </mxCell>
        <mxCell id="TFdXxxwNR08csre6Bzj9-8" style="edgeStyle=orthogonalEdgeStyle;rounded=0;orthogonalLoop=1;jettySize=auto;html=1;entryX=0.607;entryY=0.998;entryDx=0;entryDy=0;entryPerimeter=0;exitX=0.605;exitY=0.011;exitDx=0;exitDy=0;exitPerimeter=0;" edge="1" parent="1" source="TFdXxxwNR08csre6Bzj9-5">
          <mxGeometry relative="1" as="geometry">
            <mxPoint x="814" y="530.5" as="sourcePoint" />
            <mxPoint x="813.54" y="455" as="targetPoint" />
            <Array as="points">
              <mxPoint x="813" y="530" />
              <mxPoint x="814" y="530" />
            </Array>
          </mxGeometry>
        </mxCell>
        <mxCell id="TFdXxxwNR08csre6Bzj9-9" value="FaultN" style="edgeLabel;html=1;align=center;verticalAlign=middle;resizable=0;points=[];" vertex="1" connectable="0" parent="TFdXxxwNR08csre6Bzj9-8">
          <mxGeometry x="-0.0553" relative="1" as="geometry">
            <mxPoint y="11" as="offset" />
          </mxGeometry>
        </mxCell>
        <mxCell id="TFdXxxwNR08csre6Bzj9-10" style="edgeStyle=orthogonalEdgeStyle;rounded=0;orthogonalLoop=1;jettySize=auto;html=1;entryX=0.003;entryY=0.475;entryDx=0;entryDy=0;entryPerimeter=0;" edge="1" parent="1">
          <mxGeometry relative="1" as="geometry">
            <mxPoint x="410" y="480" as="sourcePoint" />
            <mxPoint x="680.6600000000001" y="663.75" as="targetPoint" />
            <Array as="points">
              <mxPoint x="410" y="481" />
              <mxPoint x="540" y="481" />
              <mxPoint x="540" y="664" />
            </Array>
          </mxGeometry>
        </mxCell>
        <mxCell id="TFdXxxwNR08csre6Bzj9-20" value="VBAT" style="edgeLabel;html=1;align=center;verticalAlign=middle;resizable=0;points=[];" vertex="1" connectable="0" parent="TFdXxxwNR08csre6Bzj9-10">
          <mxGeometry x="-0.1184" y="1" relative="1" as="geometry">
            <mxPoint as="offset" />
          </mxGeometry>
        </mxCell>
        <mxCell id="TFdXxxwNR08csre6Bzj9-13" style="edgeStyle=orthogonalEdgeStyle;rounded=0;orthogonalLoop=1;jettySize=auto;html=1;entryX=0.012;entryY=0.834;entryDx=0;entryDy=0;entryPerimeter=0;exitX=1.003;exitY=0.34;exitDx=0;exitDy=0;exitPerimeter=0;" edge="1" parent="1" source="6HPAj1P-MnoI5-2GbeFd-4" target="6HPAj1P-MnoI5-2GbeFd-9">
          <mxGeometry relative="1" as="geometry">
            <Array as="points">
              <mxPoint x="460" y="460" />
              <mxPoint x="460" y="414" />
            </Array>
          </mxGeometry>
        </mxCell>
        <mxCell id="TFdXxxwNR08csre6Bzj9-23" value="Battery Level Read over ADC" style="edgeLabel;html=1;align=center;verticalAlign=middle;resizable=0;points=[];" vertex="1" connectable="0" parent="TFdXxxwNR08csre6Bzj9-13">
          <mxGeometry x="-0.0317" y="2" relative="1" as="geometry">
            <mxPoint x="45" as="offset" />
          </mxGeometry>
        </mxCell>
        <mxCell id="TFdXxxwNR08csre6Bzj9-21" value="&lt;b&gt;Motor Connector&lt;/b&gt;" style="whiteSpace=wrap;html=1;rounded=1;fillColor=#d80073;fontColor=#ffffff;strokeColor=#A50040;" vertex="1" parent="1">
          <mxGeometry x="970" y="617.5" width="220" height="85" as="geometry" />
        </mxCell>
        <mxCell id="TFdXxxwNR08csre6Bzj9-24" style="edgeStyle=orthogonalEdgeStyle;rounded=0;orthogonalLoop=1;jettySize=auto;html=1;entryX=1.005;entryY=0.312;entryDx=0;entryDy=0;entryPerimeter=0;" edge="1" parent="1">
          <mxGeometry relative="1" as="geometry">
            <mxPoint x="1039" y="273" as="sourcePoint" />
            <mxPoint x="899.9999999999999" y="273" as="targetPoint" />
            <Array as="points">
              <mxPoint x="1040" y="273" />
              <mxPoint x="1040" y="273" />
            </Array>
          </mxGeometry>
        </mxCell>
        <mxCell id="TFdXxxwNR08csre6Bzj9-25" value="Int1/Int2" style="edgeLabel;html=1;align=center;verticalAlign=middle;resizable=0;points=[];" vertex="1" connectable="0" parent="TFdXxxwNR08csre6Bzj9-24">
          <mxGeometry x="0.4314" y="3" relative="1" as="geometry">
            <mxPoint x="20" as="offset" />
          </mxGeometry>
        </mxCell>
      </root>
    </mxGraphModel>
  </diagram>
</mxfile>
